PathFileType	4	(X/Y/Z)	SUBJ36_2_walk_RCNL2025.trc
DataRate	CameraRate	NumFrames	NumMarkers	Units	OrigDataRate	OrigDataStartFrame	OrigNumFrames
100	100	10	25	mm	100	300	399
Frame#	Time	R_Shoulder			L_Shoulder			C7			J_Notch			R_Elbow			L_Elbow			R_Wrist			L_Wrist			R_Asis			L_Asis			Sacral			Thoracic			Sternum			R_Thigh_Lateral			R_Knee_Lateral			R_Shank_Lateral			R_Ankle_Lateral			R_Heel			R_Toe			L_Thigh_Lateral			L_Knee_Lateral			L_Shank_Lateral			L_Ankle_Lateral			L_Heel			L_Toe		
		X1	Y1	Z1	X2	Y2	Z2	X3	Y3	Z3	X4	Y4	Z4	X5	Y5	Z5	X6	Y6	Z6	X7	Y7	Z7	X8	Y8	Z8	X9	Y9	Z9	X10	Y10	Z10	X11	Y11	Z11	X12	Y12	Z12	X13	Y13	Z13	X14	Y14	Z14	X15	Y15	Z15	X16	Y16	Z16	X17	Y17	Z17	X18	Y18	Z18	X19	Y19	Z19	X20	Y20	Z20	X21	Y21	Z21	X22	Y22	Z22	X23	Y23	Z23	X24	Y24	Z24	X25	Y25	Z25
300	2.99000000	1763.076416	1348.447388	-133.738800	1750.639526	1321.801514	-477.617554	1693.120850	1407.317383	-293.557190	1829.331177	1298.788696	-298.325256	1693.351807	1035.319824	-50.176247	1705.016602	1006.079224	-522.423523	1806.735779	822.413910	-26.617114	1821.151672	802.001160	-505.023071	1817.546509	911.755798	-169.964096	1812.360962	901.141785	-395.574066	1594.204834	899.691956	-275.702545	1609.877808	1150.365234	-284.349060	1860.715698	1118.882202	-288.240814	1742.229248	498.065582	-130.776260	1736.287964	437.933105	-181.259415	1703.242065	228.886169	-148.286514	1673.260864	64.848045	-220.764740	1618.040771	44.506676	-258.712189	1788.172974	39.888199	-257.408173	1808.535400	512.298645	-483.729187	1831.257324	441.984955	-419.188690	1681.521484	316.407745	-443.117676	1569.213867	196.271606	-366.530884	1527.544678	195.745377	-306.470734	1637.656128	84.377838	-360.506622
301	3.00000000	1774.298706	1348.715698	-133.832504	1759.937744	1322.030762	-477.758789	1703.674438	1407.555908	-293.324890	1839.763428	1298.946411	-298.769897	1705.341553	1035.402466	-49.889774	1713.147827	1006.445374	-522.411743	1824.011841	825.090851	-28.212646	1827.756714	801.383636	-507.091614	1828.483032	911.421082	-170.565048	1822.588013	901.999573	-395.931702	1604.769287	899.837524	-276.240479	1620.345337	1150.601807	-283.454651	1871.224731	1119.051636	-288.837158	1745.110962	498.391113	-130.956268	1738.408691	438.265717	-181.492279	1704.434326	229.269577	-148.475418	1673.643311	65.433594	-220.839645	1618.172974	45.326641	-258.842621	1788.271729	39.861465	-257.551117	1828.304443	514.827637	-484.783417	1850.966553	444.673126	-419.663879	1704.994873	314.608429	-443.527435	1598.359131	188.152344	-367.628174	1556.512329	185.113510	-307.569489	1672.909058	80.627319	-362.759796
302	3.01000000	1785.448730	1348.797241	-133.909134	1769.321777	1322.091919	-477.899231	1714.202026	1407.641113	-293.088562	1850.188843	1298.955811	-299.179810	1717.268555	1035.295044	-49.637547	1721.375732	1006.668152	-522.440491	1841.031067	827.640961	-29.826545	1834.348755	800.602173	-509.170807	1839.425415	911.002075	-171.260971	1832.778687	902.680237	-396.397217	1615.331421	899.840454	-276.785278	1630.798950	1150.697998	-282.666687	1881.689209	1119.063965	-289.385162	1747.943726	498.819092	-131.047119	1740.550049	438.696289	-181.637421	1705.614258	229.749786	-148.596085	1674.066528	66.131554	-220.903366	1618.377075	46.308666	-258.961914	1788.375732	39.833271	-257.679260	1847.609497	517.310852	-485.730103	1870.113159	447.209412	-420.045471	1728.670898	311.865173	-443.940063	1628.224976	179.241760	-368.656494	1586.375977	173.655701	-308.579041	1708.791626	76.519585	-364.813690
303	3.02000000	1796.540527	1348.698853	-133.978882	1778.813721	1321.993164	-478.044525	1724.714355	1407.581299	-292.853546	1860.618408	1298.821167	-299.562012	1729.161865	1035.007812	-49.424660	1729.711914	1006.758728	-522.521301	1857.782715	830.042664	-31.459299	1840.947449	799.675293	-511.246506	1850.362061	910.525635	-172.026352	1842.950562	903.203064	-396.958160	1625.896973	899.703674	-277.330261	1641.247437	1150.662842	-281.999878	1892.122070	1118.924683	-289.894562	1750.804932	499.354584	-131.038300	1742.765015	439.227905	-181.687485	1706.801880	230.342300	-148.639282	1674.526245	66.943779	-220.947845	1618.658936	47.460030	-259.049652	1788.495605	39.807480	-257.789459	1866.289795	519.702759	-486.549805	1888.638184	449.548553	-420.347290	1752.617310	308.158752	-444.366364	1658.858398	169.686142	-369.582031	1617.201416	161.533615	-309.456635	1745.269897	72.190880	-366.659302
304	3.03000000	1807.587280	1348.433228	-134.052948	1788.430420	1321.746948	-478.200073	1735.221436	1407.386353	-292.626709	1871.062378	1298.550659	-299.924225	1741.045288	1034.555786	-49.259026	1738.162109	1006.730896	-522.662537	1874.257629	832.278839	-33.111453	1847.572266	798.624756	-513.307571	1861.281616	910.014587	-172.834305	1853.122925	903.583313	-397.599579	1636.473145	899.431091	-277.872681	1651.700928	1150.505615	-281.464874	1902.535889	1118.642456	-290.375916	1753.773560	499.997101	-130.924561	1745.107666	439.860626	-181.639801	1708.017090	231.060822	-148.597824	1675.020874	67.871384	-220.961182	1619.019409	48.784248	-259.089050	1788.643433	39.789799	-257.876984	1884.183960	521.945618	-487.233917	1906.474365	451.639862	-420.585449	1776.877319	303.524078	-444.811646	1690.291382	159.652710	-370.378204	1649.033325	148.932343	-310.174652	1782.311768	67.797554	-368.278351
305	3.04000000	1818.601074	1348.017212	-134.142990	1798.182617	1321.369385	-478.371399	1745.732544	1407.067017	-292.416321	1881.529907	1298.154907	-300.274719	1752.936768	1033.957520	-49.150345	1746.727783	1006.599670	-522.869080	1890.447571	834.335205	-34.782691	1854.241760	797.473755	-515.345917	1872.174561	909.486267	-173.657761	1863.317261	903.829712	-398.304535	1647.067871	899.028137	-278.414429	1662.171021	1150.235840	-281.067993	1912.942627	1118.228149	-290.840607	1756.926270	500.740936	-130.707184	1747.631714	440.591278	-181.496674	1709.280396	231.915497	-148.467575	1675.554565	68.916496	-220.927887	1619.455566	50.281483	-259.068939	1788.830200	39.786644	-257.935577	1901.141724	523.969666	-487.783386	1923.548584	453.428650	-420.775330	1801.459839	298.053925	-445.273712	1722.533691	149.328171	-371.028412	1681.888428	136.058197	-310.721649	1819.879517	63.513470	-369.646149
306	3.05000000	1829.592163	1347.470093	-134.260345	1808.075439	1320.878418	-478.564423	1756.256592	1406.634644	-292.231781	1892.029419	1297.646851	-300.621613	1764.848877	1033.233032	-49.108929	1755.406738	1006.380249	-523.142822	1906.344360	836.198822	-36.471249	1860.972717	796.244904	-517.356400	1883.034668	908.952332	-174.470490	1873.556763	903.944092	-399.054474	1657.691162	898.502380	-278.962158	1672.670044	1149.862061	-280.811432	1923.354248	1117.694458	-291.300262	1760.333496	501.575562	-130.394165	1750.387329	441.413452	-181.265335	1710.613770	232.911346	-148.248276	1676.139893	70.083382	-220.829819	1619.962158	51.949001	-258.983795	1789.064331	39.803482	-257.958649	1917.034180	525.694458	-488.205292	1939.787231	454.859650	-420.928833	1826.332642	291.896027	-445.741882	1755.565430	138.916016	-371.527496	1715.749512	123.134705	-311.101715	1857.919434	59.525436	-370.737610
307	3.06000000	1840.568604	1346.812012	-134.415482	1818.110229	1320.292114	-478.785553	1766.801270	1406.099365	-292.082825	1902.569092	1297.040161	-300.972565	1776.790039	1032.402222	-49.144539	1764.194702	1006.086670	-523.483032	1921.940063	837.856476	-38.173649	1867.780090	794.959106	-519.336624	1893.860352	908.419250	-175.248505	1883.866089	903.922119	-399.829926	1668.354492	897.863098	-279.526581	1683.211060	1149.391113	-280.693848	1933.783813	1117.055176	-291.766266	1764.055664	502.486359	-129.999664	1753.420044	442.317474	-180.957504	1712.041260	234.047440	-147.944153	1676.798584	71.378281	-220.647919	1620.534424	53.781853	-258.833160	1789.349854	39.843163	-257.940918	1931.761963	527.032227	-488.507812	1955.123779	455.881989	-421.051422	1851.419678	285.243317	-446.197784	1789.328003	128.632339	-371.882233	1750.558838	110.397079	-311.332031	1896.350952	56.026154	-371.534607
308	3.07000000	1851.536987	1346.062012	-134.617340	1828.285400	1319.628052	-479.041809	1777.372681	1405.470337	-291.978699	1913.156494	1296.348145	-301.334625	1788.765015	1031.483643	-49.265423	1773.087646	1005.730896	-523.887085	1937.226807	839.293884	-39.884625	1874.677063	793.634399	-521.286316	1904.654663	907.889282	-175.971298	1894.270752	903.755737	-400.611694	1679.071167	897.121216	-280.121613	1693.806763	1148.827881	-280.711304	1944.245361	1116.324463	-292.248657	1768.140747	503.455597	-129.542679	1756.768799	443.290375	-180.588760	1713.588501	235.316925	-147.564072	1677.558350	72.807693	-220.365067	1621.169434	55.773609	-258.620758	1789.685791	39.904804	-257.880341	1945.258911	527.892212	-488.694763	1969.506470	456.455048	-421.140533	1876.602905	278.318939	-446.617371	1823.718018	118.699158	-372.110077	1786.211792	98.084694	-311.439301	1935.056152	53.204403	-372.033539
309	3.08000000	1862.501709	1345.237427	-134.873093	1838.598389	1318.901123	-479.340393	1787.975098	1404.754517	-291.927185	1923.798706	1295.583496	-301.713989	1800.775635	1030.493652	-49.477539	1782.082397	1005.322205	-524.351868	1952.197205	840.495392	-41.597154	1881.674805	792.285339	-523.206894	1915.426392	907.361267	-176.623337	1904.795654	903.435364	-401.381775	1689.855957	896.288879	-280.762512	1704.469482	1148.174316	-280.858337	1954.754517	1115.516357	-292.755463	1772.623169	504.463165	-129.045486	1760.465332	444.316193	-180.177841	1715.281982	236.707565	-147.121384	1678.446899	74.375427	-219.969742	1621.867432	57.916931	-258.353516	1790.066895	39.983795	-257.779266	1957.495728	528.187378	-488.761383	1982.908569	456.554199	-421.184814	1901.729492	271.357880	-446.973999	1858.580444	109.335258	-372.237061	1822.551514	86.431717	-311.455566	1973.870850	51.232334	-372.251129
